<?xml version="1.0" ?>
<svg viewBox="50 50 700 700" xml:space="preserve"
    xmlns="http://www.w3.org/2000/svg"
    xmlns:xlink="http://www.w3.org/1999/xlink">
    <g>
        <path d="M293.3,626.1L293.3,626.1L293.3,626.1c34.1,34.1,80,52.3,128,52.3c100.3,0,182.4-82.1,182.4-182.4V390.4c0-1.1,0-2.1,0-2.1   c0-1.1,0-2.1,0-2.1V181.3c0-18.1-13.9-32-32-32s-32,13.9-32,32v177.1h-32V138.7c0-18.1-13.9-32-32-32c-18.1,0-32,13.9-32,32v198.4   h-32V117.3c0-18.1-13.9-32-32-32c-18.1,0-32,13.9-32,32v230.4h-32V149.3c0-18.1-13.9-32-32-32c-18.1,0-32,13.9-32,32v222.9   c0,1.1,0,2.1,0,3.2s0,2.1,0,3.2v113.1l-96-96c-12.8-12.8-33.1-12.8-44.8,0c-12.8,12.8-12.8,33.1,0,44.8L293.3,626.1z"/>
    </g>
</svg>
