<?xml version="1.0" ?>
<svg viewBox="4 4 16 19" xml:space="preserve"
  xmlns="http://www.w3.org/2000/svg"
  xmlns:xlink="http://www.w3.org/1999/xlink">
  <circle cx="12" cy="7" r="2" fill="currentColor"/>
  <path fill="currentColor" d="M17.5,19.6l-3-2.6v-0.4l1.7,0.4c0.1,0,0.2,0,0.3,0c0.5,0,1-0.3,1.3-0.8c0.3-0.5,0.2-1,0-1.5l-1.8-3c-0.5-1-1.6-1.7-2.7-1.7  h-2.4c-1.2,0-2.2,0.7-2.7,1.7l-1.8,3c-0.3,0.5-0.3,1,0,1.5c0.3,0.6,1,0.9,1.6,0.7l1.7-0.4V17l-3,2.6c-0.3,0.3-0.5,0.6-0.5,1  C6,21.4,6.6,22,7.4,22H9v-1.9c0-0.6,0.5-1.1,1.1-1.1l0.5,0c1.1-0.1,2.3,0.1,3.4,0.5l1,0.3L10,20v2h6.6c0.8,0,1.4-0.6,1.4-1.4  C18,20.2,17.8,19.9,17.5,19.6z M12,13.3c-0.4,0-0.9,0.7-1.5,1.7c0,0,0.5-3,1.5-3c1,0,1.5,3,1.5,3C13,14.1,12.4,13.3,12,13.3z"/>
</svg>
